<svg xmlns="http://www.w3.org/2000/svg" xmlns:xlink="http://www.w3.org/1999/xlink" width="1000" zoomAndPan="magnify" viewBox="0 0 750 225" height="300" preserveAspectRatio="xMidYMid meet" version="1.0"><defs><g/></defs><g fill="#ff1616" fill-opacity="0.4"><g transform="translate(17.611744, 197.397471)"><g><path d="M 155.785156 -78.6875 C 155.785156 -123.289062 119.359375 -157.800781 74.757812 -157.800781 L 22.40625 -157.800781 C 19.113281 -157.800781 17.523438 -155.785156 17.523438 -152.8125 L 17.523438 -4.460938 C 17.523438 -0.742188 19.859375 0 22.40625 0 L 74.757812 0 C 119.574219 0 155.785156 -33.875 155.785156 -78.6875 Z M 72.636719 -119.679688 C 95.890625 -119.679688 114.898438 -102.582031 114.898438 -78.792969 C 114.898438 -56.386719 98.226562 -40.246094 76.988281 -38.546875 C 73.910156 -38.230469 70.832031 -38.015625 67.539062 -38.015625 L 58.617188 -38.015625 L 58.617188 -119.679688 Z M 72.636719 -119.679688 "/></g></g></g><g fill="#ff1616" fill-opacity="0.4"><g transform="translate(181.57328, 197.397471)"><g><path d="M 63.078125 -155.464844 C 61.484375 -152.917969 60.421875 -150.261719 59.253906 -147.394531 L 4.777344 -4.777344 C 4.777344 -4.035156 4.460938 -3.503906 4.460938 -2.972656 C 4.460938 -0.957031 5.734375 0 8.390625 0 L 152.175781 0 C 155.464844 0 156.632812 -1.273438 156.632812 -3.292969 C 156.632812 -3.824219 156.632812 -4.140625 156.527344 -4.460938 L 101.730469 -147.394531 C 100.351562 -151.324219 97.910156 -157.695312 93.660156 -157.695312 L 67.433594 -157.695312 C 65.308594 -157.695312 63.820312 -156.953125 63.078125 -155.464844 Z M 80.492188 -105.875 C 88.882812 -82.511719 95.890625 -59.785156 103.539062 -36.53125 L 57.238281 -36.53125 Z M 80.492188 -105.875 "/></g></g></g><g fill="#ff1616" fill-opacity="0.4"><g transform="translate(342.561433, 197.397471)"><g><path d="M 17.523438 -4.671875 C 17.523438 -1.59375 19.113281 0 22.195312 0 L 53.414062 0 C 56.917969 0 58.617188 -1.59375 58.617188 -4.671875 L 58.617188 -153.023438 C 58.617188 -155.890625 55.539062 -157.695312 53.414062 -157.695312 L 22.195312 -157.695312 C 19.113281 -157.695312 17.523438 -155.570312 17.523438 -153.023438 Z M 17.523438 -4.671875 "/></g></g></g><g fill="#ff1616" fill-opacity="0.4"><g transform="translate(418.807806, 197.397471)"><g><path d="M 11.894531 -36.210938 C 9.769531 -36.210938 8.28125 -34.832031 8.28125 -32.707031 L 8.28125 0.105469 C 8.28125 2.65625 9.449219 3.824219 11.46875 4.140625 L 11.894531 4.140625 C 55.113281 4.140625 77.625 -18.371094 77.625 -46.085938 C 77.625 -70.40625 55.644531 -93.34375 55.644531 -105.023438 C 55.644531 -116.175781 61.589844 -119.359375 77.308594 -121.378906 C 79.433594 -121.378906 80.917969 -122.757812 80.917969 -124.882812 L 80.917969 -157.695312 C 80.917969 -160.246094 79.75 -161.414062 77.734375 -161.730469 L 77.308594 -161.730469 C 34.085938 -161.730469 11.574219 -139.21875 11.574219 -111.503906 C 11.574219 -87.078125 33.558594 -63.929688 33.558594 -52.566406 C 33.558594 -41.414062 27.609375 -38.230469 11.894531 -36.210938 Z M 87.394531 -36.210938 C 85.273438 -36.210938 83.785156 -34.832031 83.785156 -32.707031 L 83.785156 0.105469 C 83.785156 2.65625 84.953125 3.824219 86.972656 4.140625 L 87.394531 4.140625 C 130.617188 4.140625 153.128906 -18.371094 153.128906 -46.085938 C 153.128906 -70.40625 131.148438 -93.34375 131.148438 -105.023438 C 131.148438 -116.175781 137.09375 -119.359375 152.8125 -121.378906 C 154.933594 -121.378906 156.421875 -122.757812 156.421875 -124.882812 L 156.421875 -157.695312 C 156.421875 -160.246094 155.253906 -161.414062 153.234375 -161.730469 L 152.8125 -161.730469 C 109.589844 -161.730469 87.078125 -139.21875 87.078125 -111.503906 C 87.078125 -87.078125 109.058594 -63.929688 109.058594 -52.566406 C 109.058594 -41.414062 103.113281 -38.230469 87.394531 -36.210938 Z M 87.394531 -36.210938 "/></g></g></g><g fill="#ff1616" fill-opacity="0.4"><g transform="translate(584.680799, 197.397471)"><g><path d="M 49.0625 -154.402344 C 47.148438 -157.800781 46.9375 -157.164062 45.027344 -157.695312 L 4.140625 -157.695312 C 3.1875 -157.695312 2.546875 -156.953125 2.546875 -156.101562 C 2.546875 -155.359375 3.1875 -154.617188 3.929688 -153.449219 L 54.15625 -64.566406 L 54.15625 -4.992188 C 54.15625 -1.910156 55.75 0 58.617188 0 L 90.476562 0 C 93.769531 0 95.359375 -1.699219 95.359375 -4.992188 L 95.359375 -64.351562 L 145.695312 -153.449219 C 146.4375 -154.617188 147.183594 -155.359375 147.183594 -156.101562 C 147.183594 -156.953125 146.4375 -157.695312 145.484375 -157.695312 L 104.597656 -157.695312 C 102.792969 -157.164062 102.371094 -157.800781 100.671875 -154.402344 L 74.972656 -99.503906 Z M 49.0625 -154.402344 "/></g></g></g><g fill="#ff1616" fill-opacity="1"><g transform="translate(8.225399, 188.011126)"><g><path d="M 155.785156 -78.6875 C 155.785156 -123.289062 119.359375 -157.800781 74.757812 -157.800781 L 22.40625 -157.800781 C 19.113281 -157.800781 17.523438 -155.785156 17.523438 -152.8125 L 17.523438 -4.460938 C 17.523438 -0.742188 19.859375 0 22.40625 0 L 74.757812 0 C 119.574219 0 155.785156 -33.875 155.785156 -78.6875 Z M 72.636719 -119.679688 C 95.890625 -119.679688 114.898438 -102.582031 114.898438 -78.792969 C 114.898438 -56.386719 98.226562 -40.246094 76.988281 -38.546875 C 73.910156 -38.230469 70.832031 -38.015625 67.539062 -38.015625 L 58.617188 -38.015625 L 58.617188 -119.679688 Z M 72.636719 -119.679688 "/></g></g></g><g fill="#ff1616" fill-opacity="1"><g transform="translate(172.186935, 188.011126)"><g><path d="M 63.078125 -155.464844 C 61.484375 -152.917969 60.421875 -150.261719 59.253906 -147.394531 L 4.777344 -4.777344 C 4.777344 -4.035156 4.460938 -3.503906 4.460938 -2.972656 C 4.460938 -0.957031 5.734375 0 8.390625 0 L 152.175781 0 C 155.464844 0 156.632812 -1.273438 156.632812 -3.292969 C 156.632812 -3.824219 156.632812 -4.140625 156.527344 -4.460938 L 101.730469 -147.394531 C 100.351562 -151.324219 97.910156 -157.695312 93.660156 -157.695312 L 67.433594 -157.695312 C 65.308594 -157.695312 63.820312 -156.953125 63.078125 -155.464844 Z M 80.492188 -105.875 C 88.882812 -82.511719 95.890625 -59.785156 103.539062 -36.53125 L 57.238281 -36.53125 Z M 80.492188 -105.875 "/></g></g></g><g fill="#ff1616" fill-opacity="1"><g transform="translate(333.175088, 188.011126)"><g><path d="M 17.523438 -4.671875 C 17.523438 -1.59375 19.113281 0 22.195312 0 L 53.414062 0 C 56.917969 0 58.617188 -1.59375 58.617188 -4.671875 L 58.617188 -153.023438 C 58.617188 -155.890625 55.539062 -157.695312 53.414062 -157.695312 L 22.195312 -157.695312 C 19.113281 -157.695312 17.523438 -155.570312 17.523438 -153.023438 Z M 17.523438 -4.671875 "/></g></g></g><g fill="#ff1616" fill-opacity="1"><g transform="translate(409.421461, 188.011126)"><g><path d="M 11.894531 -36.210938 C 9.769531 -36.210938 8.28125 -34.832031 8.28125 -32.707031 L 8.28125 0.105469 C 8.28125 2.65625 9.449219 3.824219 11.46875 4.140625 L 11.894531 4.140625 C 55.113281 4.140625 77.625 -18.371094 77.625 -46.085938 C 77.625 -70.40625 55.644531 -93.34375 55.644531 -105.023438 C 55.644531 -116.175781 61.589844 -119.359375 77.308594 -121.378906 C 79.433594 -121.378906 80.917969 -122.757812 80.917969 -124.882812 L 80.917969 -157.695312 C 80.917969 -160.246094 79.75 -161.414062 77.734375 -161.730469 L 77.308594 -161.730469 C 34.085938 -161.730469 11.574219 -139.21875 11.574219 -111.503906 C 11.574219 -87.078125 33.558594 -63.929688 33.558594 -52.566406 C 33.558594 -41.414062 27.609375 -38.230469 11.894531 -36.210938 Z M 87.394531 -36.210938 C 85.273438 -36.210938 83.785156 -34.832031 83.785156 -32.707031 L 83.785156 0.105469 C 83.785156 2.65625 84.953125 3.824219 86.972656 4.140625 L 87.394531 4.140625 C 130.617188 4.140625 153.128906 -18.371094 153.128906 -46.085938 C 153.128906 -70.40625 131.148438 -93.34375 131.148438 -105.023438 C 131.148438 -116.175781 137.09375 -119.359375 152.8125 -121.378906 C 154.933594 -121.378906 156.421875 -122.757812 156.421875 -124.882812 L 156.421875 -157.695312 C 156.421875 -160.246094 155.253906 -161.414062 153.234375 -161.730469 L 152.8125 -161.730469 C 109.589844 -161.730469 87.078125 -139.21875 87.078125 -111.503906 C 87.078125 -87.078125 109.058594 -63.929688 109.058594 -52.566406 C 109.058594 -41.414062 103.113281 -38.230469 87.394531 -36.210938 Z M 87.394531 -36.210938 "/></g></g></g><g fill="#ff1616" fill-opacity="1"><g transform="translate(575.294455, 188.011126)"><g><path d="M 49.0625 -154.402344 C 47.148438 -157.800781 46.9375 -157.164062 45.027344 -157.695312 L 4.140625 -157.695312 C 3.1875 -157.695312 2.546875 -156.953125 2.546875 -156.101562 C 2.546875 -155.359375 3.1875 -154.617188 3.929688 -153.449219 L 54.15625 -64.566406 L 54.15625 -4.992188 C 54.15625 -1.910156 55.75 0 58.617188 0 L 90.476562 0 C 93.769531 0 95.359375 -1.699219 95.359375 -4.992188 L 95.359375 -64.351562 L 145.695312 -153.449219 C 146.4375 -154.617188 147.183594 -155.359375 147.183594 -156.101562 C 147.183594 -156.953125 146.4375 -157.695312 145.484375 -157.695312 L 104.597656 -157.695312 C 102.792969 -157.164062 102.371094 -157.800781 100.671875 -154.402344 L 74.972656 -99.503906 Z M 49.0625 -154.402344 "/></g></g></g></svg>