<svg xmlns="http://www.w3.org/2000/svg" xmlns:xlink="http://www.w3.org/1999/xlink" width="1000" zoomAndPan="magnify" viewBox="0 0 750 225" height="300" preserveAspectRatio="xMidYMid meet" version="1.0"><defs><g/></defs><g fill="#ff1616" fill-opacity="0.4"><g transform="translate(78.38041, 193.209413)"><g><path d="M 151.6875 -76.617188 C 151.6875 -120.046875 116.21875 -153.652344 72.792969 -153.652344 L 21.816406 -153.652344 C 18.613281 -153.652344 17.0625 -151.6875 17.0625 -148.789062 L 17.0625 -4.34375 C 17.0625 -0.722656 19.335938 0 21.816406 0 L 72.792969 0 C 116.425781 0 151.6875 -32.984375 151.6875 -76.617188 Z M 70.726562 -116.53125 C 93.367188 -116.53125 111.878906 -99.882812 111.878906 -76.722656 C 111.878906 -54.90625 95.644531 -39.1875 74.964844 -37.535156 C 71.964844 -37.222656 68.96875 -37.015625 65.761719 -37.015625 L 57.074219 -37.015625 L 57.074219 -116.53125 Z M 70.726562 -116.53125 "/></g></g></g><g fill="#ff1616" fill-opacity="0.4"><g transform="translate(238.028389, 193.209413)"><g><path d="M 61.417969 -151.375 C 59.867188 -148.894531 58.832031 -146.308594 57.695312 -143.515625 L 4.652344 -4.652344 C 4.652344 -3.929688 4.34375 -3.414062 4.34375 -2.894531 C 4.34375 -0.929688 5.582031 0 8.167969 0 L 148.171875 0 C 151.375 0 152.511719 -1.242188 152.511719 -3.207031 C 152.511719 -3.722656 152.511719 -4.03125 152.410156 -4.34375 L 99.054688 -143.515625 C 97.710938 -147.34375 95.332031 -153.546875 91.199219 -153.546875 L 65.660156 -153.546875 C 63.589844 -153.546875 62.144531 -152.824219 61.417969 -151.375 Z M 78.375 -103.089844 C 86.542969 -80.339844 93.367188 -58.214844 100.8125 -35.570312 L 55.730469 -35.570312 Z M 78.375 -103.089844 "/></g></g></g><g fill="#ff1616" fill-opacity="0.4"><g transform="translate(394.781217, 193.209413)"><g><path d="M 17.0625 -4.550781 C 17.0625 -1.550781 18.613281 0 21.609375 0 L 52.007812 0 C 55.421875 0 57.074219 -1.550781 57.074219 -4.550781 L 57.074219 -148.996094 C 57.074219 -151.789062 54.078125 -153.546875 52.007812 -153.546875 L 21.609375 -153.546875 C 18.613281 -153.546875 17.0625 -151.480469 17.0625 -148.996094 Z M 17.0625 -4.550781 "/></g></g></g><g fill="#ff1616" fill-opacity="0.4"><g transform="translate(469.02167, 193.209413)"><g><path d="M 10.753906 -37.222656 C 8.789062 -37.222656 7.652344 -35.984375 7.652344 -34.019531 L 7.652344 -5.6875 C 7.652344 -3.414062 8.582031 -2.171875 10.339844 -1.964844 L 10.753906 -1.964844 C 47.667969 -1.964844 66.070312 -22.746094 66.070312 -48.289062 C 66.070312 -70.726562 48.183594 -92.023438 48.183594 -102.777344 C 48.183594 -113.117188 53.25 -118.183594 66.796875 -119.839844 C 68.761719 -119.839844 69.898438 -121.078125 69.898438 -123.042969 L 69.898438 -151.375 C 69.898438 -153.652344 68.96875 -154.890625 67.210938 -155.097656 L 66.796875 -155.097656 C 29.777344 -155.097656 11.476562 -134.316406 11.476562 -108.777344 C 11.476562 -86.132812 29.367188 -65.039062 29.367188 -54.285156 C 29.367188 -43.945312 24.296875 -38.878906 10.753906 -37.222656 Z M 10.753906 -37.222656 "/></g></g></g><g fill="#ff1616" fill-opacity="0.4"><g transform="translate(546.984496, 193.209413)"><g><path d="M 47.769531 -150.339844 C 45.910156 -153.652344 45.703125 -153.03125 43.839844 -153.546875 L 4.03125 -153.546875 C 3.101562 -153.546875 2.480469 -152.824219 2.480469 -151.996094 C 2.480469 -151.273438 3.101562 -150.546875 3.824219 -149.410156 L 52.734375 -62.867188 L 52.734375 -4.859375 C 52.734375 -1.859375 54.285156 0 57.074219 0 L 88.097656 0 C 91.300781 0 92.851562 -1.65625 92.851562 -4.859375 L 92.851562 -62.660156 L 141.863281 -149.410156 C 142.585938 -150.546875 143.3125 -151.273438 143.3125 -151.996094 C 143.3125 -152.824219 142.585938 -153.546875 141.65625 -153.546875 L 101.847656 -153.546875 C 100.089844 -153.03125 99.675781 -153.652344 98.023438 -150.339844 L 73 -96.882812 Z M 47.769531 -150.339844 "/></g></g></g><g fill="#ff1616" fill-opacity="1"><g transform="translate(69.241096, 184.070102)"><g><path d="M 151.6875 -76.617188 C 151.6875 -120.046875 116.21875 -153.652344 72.792969 -153.652344 L 21.816406 -153.652344 C 18.613281 -153.652344 17.0625 -151.6875 17.0625 -148.789062 L 17.0625 -4.34375 C 17.0625 -0.722656 19.335938 0 21.816406 0 L 72.792969 0 C 116.425781 0 151.6875 -32.984375 151.6875 -76.617188 Z M 70.726562 -116.53125 C 93.367188 -116.53125 111.878906 -99.882812 111.878906 -76.722656 C 111.878906 -54.90625 95.644531 -39.1875 74.964844 -37.535156 C 71.964844 -37.222656 68.96875 -37.015625 65.761719 -37.015625 L 57.074219 -37.015625 L 57.074219 -116.53125 Z M 70.726562 -116.53125 "/></g></g></g><g fill="#ff1616" fill-opacity="1"><g transform="translate(228.889074, 184.070102)"><g><path d="M 61.417969 -151.375 C 59.867188 -148.894531 58.832031 -146.308594 57.695312 -143.515625 L 4.652344 -4.652344 C 4.652344 -3.929688 4.34375 -3.414062 4.34375 -2.894531 C 4.34375 -0.929688 5.582031 0 8.167969 0 L 148.171875 0 C 151.375 0 152.511719 -1.242188 152.511719 -3.207031 C 152.511719 -3.722656 152.511719 -4.03125 152.410156 -4.34375 L 99.054688 -143.515625 C 97.710938 -147.34375 95.332031 -153.546875 91.199219 -153.546875 L 65.660156 -153.546875 C 63.589844 -153.546875 62.144531 -152.824219 61.417969 -151.375 Z M 78.375 -103.089844 C 86.542969 -80.339844 93.367188 -58.214844 100.8125 -35.570312 L 55.730469 -35.570312 Z M 78.375 -103.089844 "/></g></g></g><g fill="#ff1616" fill-opacity="1"><g transform="translate(385.641902, 184.070102)"><g><path d="M 17.0625 -4.550781 C 17.0625 -1.550781 18.613281 0 21.609375 0 L 52.007812 0 C 55.421875 0 57.074219 -1.550781 57.074219 -4.550781 L 57.074219 -148.996094 C 57.074219 -151.789062 54.078125 -153.546875 52.007812 -153.546875 L 21.609375 -153.546875 C 18.613281 -153.546875 17.0625 -151.480469 17.0625 -148.996094 Z M 17.0625 -4.550781 "/></g></g></g><g fill="#ff1616" fill-opacity="1"><g transform="translate(459.882355, 184.070102)"><g><path d="M 10.753906 -37.222656 C 8.789062 -37.222656 7.652344 -35.984375 7.652344 -34.019531 L 7.652344 -5.6875 C 7.652344 -3.414062 8.582031 -2.171875 10.339844 -1.964844 L 10.753906 -1.964844 C 47.667969 -1.964844 66.070312 -22.746094 66.070312 -48.289062 C 66.070312 -70.726562 48.183594 -92.023438 48.183594 -102.777344 C 48.183594 -113.117188 53.25 -118.183594 66.796875 -119.839844 C 68.761719 -119.839844 69.898438 -121.078125 69.898438 -123.042969 L 69.898438 -151.375 C 69.898438 -153.652344 68.96875 -154.890625 67.210938 -155.097656 L 66.796875 -155.097656 C 29.777344 -155.097656 11.476562 -134.316406 11.476562 -108.777344 C 11.476562 -86.132812 29.367188 -65.039062 29.367188 -54.285156 C 29.367188 -43.945312 24.296875 -38.878906 10.753906 -37.222656 Z M 10.753906 -37.222656 "/></g></g></g><g fill="#ff1616" fill-opacity="1"><g transform="translate(537.845181, 184.070102)"><g><path d="M 47.769531 -150.339844 C 45.910156 -153.652344 45.703125 -153.03125 43.839844 -153.546875 L 4.03125 -153.546875 C 3.101562 -153.546875 2.480469 -152.824219 2.480469 -151.996094 C 2.480469 -151.273438 3.101562 -150.546875 3.824219 -149.410156 L 52.734375 -62.867188 L 52.734375 -4.859375 C 52.734375 -1.859375 54.285156 0 57.074219 0 L 88.097656 0 C 91.300781 0 92.851562 -1.65625 92.851562 -4.859375 L 92.851562 -62.660156 L 141.863281 -149.410156 C 142.585938 -150.546875 143.3125 -151.273438 143.3125 -151.996094 C 143.3125 -152.824219 142.585938 -153.546875 141.65625 -153.546875 L 101.847656 -153.546875 C 100.089844 -153.03125 99.675781 -153.652344 98.023438 -150.339844 L 73 -96.882812 Z M 47.769531 -150.339844 "/></g></g></g></svg>