<svg xmlns="http://www.w3.org/2000/svg" xmlns:xlink="http://www.w3.org/1999/xlink" width="128" zoomAndPan="magnify" viewBox="0 0 96 95.999999" height="128" preserveAspectRatio="xMidYMid meet" version="1.0"><defs><g/></defs><g fill="#737373" fill-opacity="0.4"><g transform="translate(5.368955, 74.591046)"><g><path d="M 58.960938 -29.78125 C 58.960938 -46.664062 45.175781 -59.726562 28.296875 -59.726562 L 8.480469 -59.726562 C 7.234375 -59.726562 6.632812 -58.960938 6.632812 -57.835938 L 6.632812 -1.6875 C 6.632812 -0.28125 7.515625 0 8.480469 0 L 28.296875 0 C 45.257812 0 58.960938 -12.820312 58.960938 -29.78125 Z M 27.492188 -45.296875 C 36.292969 -45.296875 43.488281 -38.824219 43.488281 -29.824219 C 43.488281 -21.34375 37.179688 -15.234375 29.140625 -14.589844 C 27.972656 -14.46875 26.808594 -14.390625 25.5625 -14.390625 L 22.1875 -14.390625 L 22.1875 -45.296875 Z M 27.492188 -45.296875 "/></g></g></g><g fill="#737373" fill-opacity="0.4"><g transform="translate(67.421553, 74.591046)"><g><path d="M 4.179688 -14.46875 C 3.417969 -14.46875 2.972656 -13.988281 2.972656 -13.222656 L 2.972656 -2.210938 C 2.972656 -1.328125 3.335938 -0.84375 4.019531 -0.761719 L 4.179688 -0.761719 C 18.527344 -0.761719 25.683594 -8.84375 25.683594 -18.769531 C 25.683594 -27.492188 18.730469 -35.769531 18.730469 -39.953125 C 18.730469 -43.96875 20.699219 -45.941406 25.964844 -46.582031 C 26.726562 -46.582031 27.171875 -47.066406 27.171875 -47.828125 L 27.171875 -58.84375 C 27.171875 -59.726562 26.808594 -60.207031 26.125 -60.289062 L 25.964844 -60.289062 C 11.574219 -60.289062 4.460938 -52.210938 4.460938 -42.28125 C 4.460938 -33.480469 11.414062 -25.28125 11.414062 -21.101562 C 11.414062 -17.082031 9.445312 -15.113281 4.179688 -14.46875 Z M 4.179688 -14.46875 "/></g></g></g><g fill="#ff1616" fill-opacity="1"><g transform="translate(1.816407, 71.038498)"><g><path d="M 58.960938 -29.78125 C 58.960938 -46.664062 45.175781 -59.726562 28.296875 -59.726562 L 8.480469 -59.726562 C 7.234375 -59.726562 6.632812 -58.960938 6.632812 -57.835938 L 6.632812 -1.6875 C 6.632812 -0.28125 7.515625 0 8.480469 0 L 28.296875 0 C 45.257812 0 58.960938 -12.820312 58.960938 -29.78125 Z M 27.492188 -45.296875 C 36.292969 -45.296875 43.488281 -38.824219 43.488281 -29.824219 C 43.488281 -21.34375 37.179688 -15.234375 29.140625 -14.589844 C 27.972656 -14.46875 26.808594 -14.390625 25.5625 -14.390625 L 22.1875 -14.390625 L 22.1875 -45.296875 Z M 27.492188 -45.296875 "/></g></g></g><g fill="#ff1616" fill-opacity="1"><g transform="translate(63.869004, 71.038498)"><g><path d="M 4.179688 -14.46875 C 3.417969 -14.46875 2.972656 -13.988281 2.972656 -13.222656 L 2.972656 -2.210938 C 2.972656 -1.328125 3.335938 -0.84375 4.019531 -0.761719 L 4.179688 -0.761719 C 18.527344 -0.761719 25.683594 -8.84375 25.683594 -18.769531 C 25.683594 -27.492188 18.730469 -35.769531 18.730469 -39.953125 C 18.730469 -43.96875 20.699219 -45.941406 25.964844 -46.582031 C 26.726562 -46.582031 27.171875 -47.066406 27.171875 -47.828125 L 27.171875 -58.84375 C 27.171875 -59.726562 26.808594 -60.207031 26.125 -60.289062 L 25.964844 -60.289062 C 11.574219 -60.289062 4.460938 -52.210938 4.460938 -42.28125 C 4.460938 -33.480469 11.414062 -25.28125 11.414062 -21.101562 C 11.414062 -17.082031 9.445312 -15.113281 4.179688 -14.46875 Z M 4.179688 -14.46875 "/></g></g></g></svg>